<svg xmlns="http://www.w3.org/2000/svg" viewBox="0 0 40 40">
  <defs>
    <linearGradient id="bGradC" x1="0%" y1="0%" x2="100%" y2="100%">
      <stop offset="0%" style="stop-color:#008F8F"/>
      <stop offset="100%" style="stop-color:#882D61"/>
    </linearGradient>
  </defs>
  <g transform="translate(4,2)">
    <path d="M4 0 C4 0 4 36 4 36 L14 36 C24 36 28 31 28 25 C28 20 25 17 20 16 C24 14 26 11 26 7 C26 2 22 0 16 0 Z M11 6 L14 6 C17 6 19 7.5 19 10 C19 13 17 14.5 14 14.5 L11 14.5 Z M11 21 L16 21 C19 21 21 22.5 21 26 C21 29 19 30 16 30 L11 30 Z"
          fill="url(#bGradC)"/>
  </g>
</svg>
